<svg width="21.000000" height="21.000000" viewBox="0 0 21 21" fill="none" xmlns="http://www.w3.org/2000/svg" xmlns:xlink="http://www.w3.org/1999/xlink">
	<desc>
			Created with Pixso.
	</desc>
	<defs/>
	<path id="Vector" d="M21 10.5645C21 4.72949 16.2992 0 10.5013 0C4.70081 0.00146484 0 4.72949 0 10.5654C0 15.8374 3.8399 20.2075 8.85828 21L8.85828 13.6182L6.19421 13.6182L6.19421 10.5654L8.8609 10.5654L8.8609 8.23633C8.8609 5.58936 10.4291 4.12744 12.8268 4.12744C13.9764 4.12744 15.1772 4.3335 15.1772 4.3335L15.1772 6.93164L13.853 6.93164C12.5499 6.93164 12.1431 7.74658 12.1431 8.58252L12.1431 10.5645L15.0538 10.5645L14.5892 13.6167L12.1417 13.6167L12.1417 20.9985C17.1601 20.2061 21 15.8359 21 10.5645Z" fill="#E6E6E6" fill-opacity="1.000000" fill-rule="nonzero"/>
</svg>
