<svg width="21.000000" height="21.000000" viewBox="0 0 21 21" fill="none" xmlns="http://www.w3.org/2000/svg" xmlns:xlink="http://www.w3.org/1999/xlink">
	<desc>
			Created with Pixso.
	</desc>
	<defs/>
	<path id="Vector" d="M13.7812 10.5C13.7812 11.3701 13.4355 12.2051 12.8202 12.8203C12.2048 13.4355 11.3702 13.7812 10.5 13.7812C9.62976 13.7812 8.79517 13.4355 8.17981 12.8203C7.56445 12.2051 7.21875 11.3701 7.21875 10.5C7.21875 10.313 7.2384 10.1304 7.27234 9.95312L6.125 9.95312L6.125 14.3247C6.125 14.6289 6.37109 14.875 6.67517 14.875L14.3259 14.875C14.4717 14.8745 14.6113 14.8164 14.7142 14.7134C14.8171 14.6104 14.875 14.4707 14.875 14.3247L14.875 9.95312L13.7277 9.95312C13.7616 10.1304 13.7812 10.313 13.7812 10.5ZM10.5 12.6875C10.7874 12.6875 11.0719 12.6309 11.3373 12.5205C11.6028 12.4106 11.8439 12.2495 12.047 12.0464C12.2501 11.8433 12.4113 11.6016 12.5211 11.3364C12.6311 11.0708 12.6876 10.7861 12.6875 10.499C12.6874 10.2114 12.6307 9.92725 12.5208 9.66162C12.4108 9.396 12.2495 9.15479 12.0463 8.95166C11.843 8.74854 11.6018 8.5874 11.3363 8.47754C11.0708 8.36768 10.7863 8.31152 10.4989 8.31152C9.91858 8.31152 9.36206 8.54199 8.9519 8.95264C8.54163 9.36328 8.31128 9.91992 8.3114 10.5C8.31152 11.0801 8.54224 11.6367 8.95264 12.0469C9.36304 12.457 9.91968 12.6875 10.5 12.6875ZM13.125 8.20312L14.4364 8.20312C14.5236 8.20312 14.6071 8.16846 14.6688 8.10693C14.7305 8.04541 14.7654 7.96191 14.7656 7.875L14.7656 6.56348C14.7656 6.47607 14.731 6.39258 14.6692 6.33057C14.6074 6.26904 14.5237 6.23438 14.4364 6.23438L13.125 6.23438C13.0377 6.23438 12.954 6.26904 12.8922 6.33057C12.8304 6.39258 12.7958 6.47607 12.7958 6.56348L12.7958 7.875C12.7969 8.05566 12.9446 8.20312 13.125 8.20312ZM10.5 0C7.71521 0 5.04456 1.10645 3.07544 3.0752C1.1062 5.04443 0 7.71533 0 10.5C0 13.2847 1.1062 15.9556 3.07544 17.9248C5.04456 19.8936 7.71521 21 10.5 21C11.8789 21 13.2443 20.7285 14.5182 20.2007C15.7921 19.6729 16.9496 18.8994 17.9246 17.9248C18.8997 16.9497 19.6731 15.792 20.2007 14.5181C20.7284 13.2441 21 11.8789 21 10.5C21 9.12109 20.7284 7.75586 20.2007 6.48193C19.6731 5.20801 18.8997 4.05029 17.9246 3.0752C16.9496 2.10059 15.7921 1.32715 14.5182 0.799316C13.2443 0.271484 11.8789 0 10.5 0ZM15.9688 14.7534C15.9688 15.4219 15.4219 15.9688 14.7535 15.9688L6.24646 15.9688C5.57812 15.9688 5.03125 15.4219 5.03125 14.7534L5.03125 6.24658C5.03125 5.57812 5.57812 5.03125 6.24646 5.03125L14.7535 5.03125C15.4219 5.03125 15.9688 5.57812 15.9688 6.24658L15.9688 14.7534Z" fill="#E6E6E6" fill-opacity="1.000000" fill-rule="nonzero"/>
</svg>
