<svg width="21.000000" height="21.000000" viewBox="0 0 21 21" fill="none" xmlns="http://www.w3.org/2000/svg" xmlns:xlink="http://www.w3.org/1999/xlink">
	<desc>
			Created with Pixso.
	</desc>
	<defs/>
	<path id="Vector" d="M10.5 0C4.70093 0 0 4.70117 0 10.5C0 16.2988 4.70093 21 10.5 21C16.2991 21 21 16.2988 21 10.5C21 4.70117 16.2991 0 10.5 0ZM7.92969 14.8521L5.80347 14.8521L5.80347 8.00977L7.92969 8.00977L7.92969 14.8521ZM6.85345 7.16943C6.18188 7.16943 5.74768 6.69385 5.74768 6.10547C5.74768 5.50488 6.19501 5.04346 6.8808 5.04346C7.56659 5.04346 7.98657 5.50488 7.99969 6.10547C7.99969 6.69385 7.56659 7.16943 6.85345 7.16943ZM15.6953 14.8521L13.5691 14.8521L13.5691 11.0601C13.5691 10.1772 13.2606 9.57812 12.4917 9.57812C11.9044 9.57812 11.5555 9.98389 11.4012 10.374C11.3444 10.5132 11.3301 10.71 11.3301 10.9058L11.3301 14.8511L9.20282 14.8511L9.20282 10.1914C9.20282 9.3374 9.17548 8.62305 9.14703 8.0083L10.9944 8.0083L11.0917 8.95898L11.1344 8.95898C11.4144 8.5127 12.1002 7.854 13.2475 7.854C14.6464 7.854 15.6953 8.7915 15.6953 10.8062L15.6953 14.8521Z" fill="#E6E6E6" fill-opacity="1.000000" fill-rule="nonzero"/>
</svg>
