<svg width="16.800171" height="14.000000" viewBox="0 0 16.8002 14" fill="none" xmlns="http://www.w3.org/2000/svg" xmlns:xlink="http://www.w3.org/1999/xlink">
	<desc>
			Created with Pixso.
	</desc>
	<defs/>
	<path id="Vector" d="M2.80005 0C2.05743 0 1.34521 0.294922 0.820129 0.820312C0.294983 1.34521 0 2.05762 0 2.7998L0 3.08154L8.40009 7.60498L16.8002 3.08301L16.8002 2.7998C16.8002 2.05762 16.5051 1.34521 15.98 0.820312C15.455 0.294922 14.7427 0 14.0001 0L2.80005 0Z" fill="#FFFFFF" fill-opacity="1.000000" fill-rule="nonzero"/>
	<path id="Vector" d="M16.8002 4.67139L8.73187 9.01562C8.62988 9.07031 8.51587 9.09912 8.40009 9.09912C8.28424 9.09912 8.17023 9.07031 8.0683 9.01562L0 4.67139L0 11.1997C0 11.9424 0.294983 12.6543 0.820129 13.1797C1.34521 13.7046 2.05743 13.9995 2.80005 13.9995L14.0001 13.9995C14.7427 13.9995 15.455 13.7046 15.98 13.1797C16.5051 12.6543 16.8002 11.9424 16.8002 11.1997L16.8002 4.67139Z" fill="#FFFFFF" fill-opacity="1.000000" fill-rule="nonzero"/>
</svg>
