<svg width="16.000000" height="16.000000" viewBox="0 0 16 16" fill="none" xmlns="http://www.w3.org/2000/svg" xmlns:xlink="http://www.w3.org/1999/xlink">
	<desc>
			Created with Pixso.
	</desc>
	<defs/>
	<path id="Vector" d="M15.5437 11.3062L12.0436 9.80615C11.8941 9.74219 11.728 9.729 11.5701 9.76807C11.4124 9.80664 11.2714 9.896 11.1686 10.022L9.61859 11.9155C7.18597 10.7686 5.22827 8.81104 4.0813 6.37842L5.9751 4.82812C6.10126 4.72559 6.19055 4.58496 6.22943 4.42676C6.26837 4.26904 6.25476 4.10254 6.19073 3.95312L4.69073 0.453125C4.62042 0.291992 4.49615 0.160645 4.33923 0.0810547C4.18237 0.00195312 4.00275 -0.0200195 3.8313 0.0185547L0.581238 0.768555C0.416016 0.807129 0.268555 0.899902 0.162964 1.03271C0.0574341 1.16553 -6.10352e-05 1.33008 0 1.49951C0 9.51562 6.49701 16 14.5002 16C14.6699 16 14.8346 15.9429 14.9674 15.8369C15.1002 15.7314 15.1934 15.584 15.2315 15.4189L15.9815 12.1685C16.0203 11.9966 15.9977 11.8159 15.9178 11.6587C15.8379 11.5015 15.7056 11.3765 15.5437 11.3062Z" fill="#FFFFFF" fill-opacity="1.000000" fill-rule="nonzero"/>
</svg>
