<svg width="21.000000" height="21.000000" viewBox="0 0 21 21" fill="none" xmlns="http://www.w3.org/2000/svg" xmlns:xlink="http://www.w3.org/1999/xlink">
	<desc>
			Created with Pixso.
	</desc>
	<defs/>
	<path id="Vector" d="M10.5 0C4.70093 0 0 4.70117 0 10.5C0 16.2988 4.70093 21 10.5 21C16.2991 21 21 16.2988 21 10.5C21 4.70117 16.2991 0 10.5 0ZM11.2186 12.9883C10.5449 12.937 10.2626 12.6035 9.73547 12.2837C9.44562 13.8052 9.09125 15.2642 8.04126 16.0269C7.71643 13.7256 8.51593 11.9995 8.88782 10.1655C8.25452 9.09912 8.96326 6.9541 10.2999 7.48145C11.9437 8.1333 8.87579 11.4463 10.9353 11.8608C13.0856 12.2915 13.9639 8.12891 12.6306 6.77686C10.7034 4.82227 7.02295 6.73193 7.47577 9.52979C7.58514 10.2134 8.29279 10.4214 7.758 11.3652C6.52533 11.0918 6.15674 10.1191 6.20483 8.82324C6.28033 6.70117 8.11127 5.21484 9.94653 5.01025C12.2686 4.75244 14.4473 5.8623 14.7492 8.04785C15.0872 10.5132 13.7003 13.1807 11.2186 12.9883Z" fill="#E6E6E6" fill-opacity="1.000000" fill-rule="nonzero"/>
</svg>
