<svg width="21.000000" height="21.000000" viewBox="0 0 21 21" fill="none" xmlns="http://www.w3.org/2000/svg" xmlns:xlink="http://www.w3.org/1999/xlink">
	<desc>
			Created with Pixso.
	</desc>
	<defs/>
	<path id="Vector" d="M10.5 0C4.70154 0 0 4.70166 0 10.5C0 16.2983 4.70154 21 10.5 21C16.2985 21 21 16.2983 21 10.5C21 4.70166 16.2985 0 10.5 0ZM15.5461 7.91504C15.5531 8.0249 15.5531 8.13965 15.5531 8.25244C15.5531 11.6929 12.9328 15.6562 8.14453 15.6562C6.66797 15.6562 5.29919 15.2275 4.14612 14.4893C4.35706 14.5127 4.55859 14.522 4.77423 14.522C5.99298 14.522 7.11328 14.1094 8.00623 13.4111C6.86249 13.3877 5.90155 12.6377 5.57343 11.6064C5.97424 11.665 6.33514 11.665 6.74768 11.5596C6.15875 11.4399 5.62939 11.1201 5.24957 10.6543C4.86975 10.1885 4.66284 9.60547 4.66406 9.00488L4.66406 8.97168C5.00861 9.1665 5.41406 9.28613 5.83826 9.30225C5.48169 9.06445 5.18921 8.74268 4.98682 8.36475C4.78442 7.9873 4.67841 7.56543 4.6781 7.13672C4.6781 6.65137 4.80469 6.2085 5.03204 5.82422C5.68573 6.62891 6.5014 7.28711 7.42609 7.75586C8.35077 8.22461 9.36377 8.49365 10.3992 8.54541C10.0312 6.77588 11.3531 5.34375 12.9422 5.34375C13.6922 5.34375 14.3672 5.65771 14.843 6.16406C15.4313 6.05371 15.9938 5.8335 16.4953 5.53809C16.3008 6.14062 15.8929 6.64941 15.3516 6.97021C15.8766 6.91406 16.3828 6.76855 16.8516 6.56494C16.4977 7.08496 16.0547 7.54688 15.5461 7.91504Z" fill="#E6E6E6" fill-opacity="1.000000" fill-rule="nonzero"/>
</svg>
